<svg width="322" height="221" viewBox="0 0 322 221" xmlns="http://www.w3.org/2000/svg">
<path d="M125.503 35.9733C125.503 16.2632 141.462 0.266541 161.127 0.266541C180.813 0.266541 196.752 16.2632 196.752 35.9733C196.752 36.0957 196.742 36.2182 196.732 36.3406C196.722 36.463 196.712 36.5854 196.712 36.7079C196.712 36.7565 196.721 36.8052 196.731 36.8561C196.741 36.9119 196.752 36.9703 196.752 37.0343C196.752 38.5646 196.529 40.2785 196.182 42.1149C195.857 43.9716 195.409 45.7672 194.819 47.5015C187.429 71.5781 161.127 109.754 161.127 109.754C161.127 109.754 131.834 68.0482 126.398 43.8492C126.286 43.4327 126.212 43.0162 126.136 42.5899C126.115 42.4732 126.094 42.3557 126.072 42.2373C125.94 41.5157 125.843 40.8117 125.748 40.1255L125.726 39.9725C125.716 39.8909 125.706 39.8143 125.696 39.7378C125.686 39.6613 125.676 39.5848 125.665 39.5032C125.584 38.6462 125.523 37.8097 125.523 37.0139H125.543C125.543 36.8405 125.533 36.667 125.523 36.4936C125.513 36.3202 125.503 36.1468 125.503 35.9733ZM142.256 35.7285C142.256 46.1549 150.705 54.6225 161.127 54.6225C171.53 54.6225 179.999 46.1549 179.978 35.7285C179.978 25.3021 171.53 16.8345 161.127 16.8345C150.705 16.8345 142.256 25.2817 142.256 35.7285ZM270.657 129.301C267.741 129.495 264.825 129.689 261.9 129.835L247.936 130.531C249.894 130.37 251.853 130.21 253.815 130.049C256.518 129.828 259.226 129.606 261.937 129.384C265.092 129.114 268.238 128.783 271.389 128.452C272.912 128.292 274.436 128.132 275.962 127.978C282.592 127.353 289.18 126.531 295.776 125.708C298.521 125.365 301.267 125.023 304.019 124.694C304.386 121.97 303.982 119.632 299.778 118.61C296.788 117.326 290.482 118.287 283.415 119.482C281.959 119.712 280.475 119.958 278.985 120.205C273.206 121.162 267.345 122.133 262.775 122.208C246.794 121.703 232.614 122.475 218.408 123.248C204.424 124.009 190.415 124.771 174.639 124.319C152.308 123.876 130.099 126.434 107.866 128.994C107.098 129.083 106.329 129.171 105.561 129.26C91.6257 131.18 77.076 131.789 62.9521 132.38C45.0554 133.13 27.8425 133.85 13.4307 137.174C7.68407 138.622 4.01758 140.645 1.81993 142.969C-0.293954 145.276 -0.441463 147.871 0.736115 150.364C3.29628 155.378 11.3306 160.249 23.0038 162.373L23.1638 166.84C6.79509 166.199 7.93741 171.247 9.07969 176.295C9.55546 178.398 10.0312 180.5 9.24168 182.192C20.7787 181.537 32.3932 181.982 44.079 184.646C45.3311 184.57 47.126 184.462 48.9932 184.349C51.4376 184.201 54.0058 184.046 55.6422 183.946C88.7235 181.931 120.823 179.3 152.726 176.685L155.119 176.489C167.451 175.473 178.36 174.469 188.949 173.495C206.435 171.887 223.048 170.359 243.752 168.985C240.303 169.145 236.936 169.306 233.639 169.467C234.183 169.408 234.719 169.349 235.243 169.292C241.061 168.656 245.464 168.175 245.507 168.856C260.933 167.853 276.492 166.841 292.269 165.815C298.886 164.863 304.342 162.015 308.845 158.652C302.869 158.595 296.918 158.551 290.896 158.692C289.288 158.717 287.681 158.737 286.073 158.758C281.678 158.813 277.28 158.868 272.849 159.027C269.565 159.146 266.27 159.265 262.965 159.385C260.205 159.485 257.438 159.585 254.665 159.685C251.632 159.835 251.033 159.987 250.433 160.139C249.832 160.291 249.229 160.443 246.166 160.596C235.016 161.201 237.085 160.998 240.347 160.679C243.278 160.392 247.174 160.01 243.314 160.035C248.842 159.803 252.723 159.386 257.162 158.91C260.415 158.56 263.967 158.179 268.686 157.815C275.413 157.221 282.051 156.686 288.664 156.286C295.317 155.731 301.912 155.41 308.606 155.229C310.077 155.196 311.563 155.164 313.048 155.132C314.812 153.524 316.363 151.95 317.737 150.556C323.02 143.955 324.678 135.755 312.64 132.269C311.218 132.525 309.084 132.908 307.306 133.227C305.532 133.569 304.099 133.753 304.099 133.753C302.757 131.721 303.184 129.266 303.635 126.905C300.906 127.113 298.181 127.333 295.456 127.553C288.931 128.08 282.407 128.607 275.836 128.966C274.108 129.071 272.382 129.186 270.657 129.301ZM236.759 160.207C239.971 160.095 242.055 160.043 243.314 160.035C241.366 160.117 239.213 160.176 236.759 160.207ZM214.406 170.46C220.606 170.12 226.981 169.792 233.639 169.467C230.232 169.836 226.459 170.225 222.848 170.455C220.024 170.615 217.212 170.585 214.406 170.46ZM214.406 170.46C185.516 172.048 160.413 173.907 128.141 176.995C128.431 176.251 170.285 169.781 191.309 169.23C196.179 169.117 201.035 169.501 205.897 169.886C208.729 170.11 211.564 170.334 214.406 170.46Z" fill="#6595A5"/>
<path d="M80.584 142.76C79.936 141.536 76.192 137.936 75.616 140.888C75.5742 141.139 75.6293 141.437 75.683 141.729C75.7218 141.94 75.76 142.147 75.76 142.328C75.832 144.56 75.328 146.792 74.824 148.88C73.6 153.992 71.656 158.96 69.136 163.568C67.912 165.872 66.544 168.104 64.96 170.192C64.24 171.128 63.448 171.992 62.656 172.784C62.5386 172.901 62.3148 173.083 62.0497 173.297C61.3394 173.873 60.3324 174.688 60.28 175.16C60.28 175.206 60.9404 174.763 61.4634 174.412C61.7686 174.208 62.0269 174.035 62.08 174.008C61.432 174.584 60.784 175.16 60.064 175.664C60.424 175.304 58.912 176.168 58.912 176.168C58.336 176.528 57.688 176.816 56.968 177.104C55.816 177.536 54.448 177.896 53.152 177.824C49.696 177.536 49.408 173.864 49.624 171.128C50.2 163.64 53.224 155.72 56.32 148.88C59.56 141.752 63.448 134.48 68.632 128.576C68.73 128.47 68.8364 128.353 68.9502 128.229C69.8392 127.256 71.1796 125.789 72.52 124.832C69.712 126.56 67.408 129.512 65.536 132.104C67.48 129.368 69.856 126.272 72.808 124.472C74.176 123.68 76.408 122.888 76.84 124.976C77.2578 126.926 75.9921 129.347 75.1269 131.002C75.0974 131.058 75.0684 131.114 75.04 131.168C73.456 134.048 71.44 136.64 68.992 138.728C69.136 138.512 71.152 136.424 71.152 136.424C70.936 136.352 68.56 138.584 68.344 138.8C68.2 138.944 65.536 140.744 65.392 140.816H65.464C65.3836 140.856 65.3088 140.891 65.2428 140.921C65.0722 141 64.96 141.052 64.96 141.104C64.168 142.256 66.256 143.12 67.12 143.192C69.1087 143.535 71.0975 141.918 72.5886 140.706C72.663 140.646 72.7361 140.586 72.808 140.528C75.832 138.224 78.784 135.272 80.872 132.032C81.736 130.736 82.816 128.36 82.672 126.704C82.384 123.68 79.072 120.584 76.408 119.36C73.888 118.28 71.224 119.504 68.992 120.8C65.608 122.744 62.8 125.624 60.352 128.72C59.6673 129.587 59.0116 130.483 58.3481 131.39C57.965 131.914 57.5793 132.441 57.184 132.968L55.672 135.128C55.562 135.275 55.4146 135.552 55.2585 135.846C55.108 136.129 54.9493 136.428 54.808 136.64L54.952 136.496L52.936 139.736L53.368 138.944C53.008 138.872 51.424 141.752 51.28 142.112C50.488 143.336 49.84 144.632 49.1921 145.928H49.192C47.68 148.88 46.312 151.904 45.52 155.216C45.2798 156.198 45.0132 157.174 44.7462 158.151C44.1326 160.397 43.517 162.65 43.216 165.008C43.072 166.448 42.928 167.888 43.072 169.328C43.072 169.688 44.08 172.856 44.08 172.856V172.712C44.1196 172.818 44.1592 172.926 44.1996 173.036C44.38 173.528 44.578 174.068 44.872 174.656C44.823 174.558 44.7324 174.418 44.6313 174.263C44.4351 173.961 44.1995 173.598 44.152 173.36C44.2072 173.802 44.7699 174.581 45.0622 174.986C45.1512 175.11 45.2152 175.198 45.232 175.232C47.536 179.408 51.568 183.584 56.752 183.08C65.248 182.216 71.296 172.784 75.04 165.944C77.272 161.912 79.288 157.664 80.368 153.128C80.4056 152.974 80.4438 152.819 80.4824 152.662C81.2563 149.52 82.1614 145.846 80.584 142.76ZM54.232 140.672C51.496 145.208 48.832 150.032 47.104 155.072L47.0309 155.278C45.8976 158.464 44.6453 161.985 44.152 165.368C44.584 161.912 45.592 158.456 46.672 155.216C48.328 150.104 50.776 144.992 53.656 140.456C56.536 135.992 59.632 131.672 63.16 127.712C63.4428 127.429 63.7257 127.131 64.0136 126.827C64.6051 126.203 65.218 125.557 65.896 124.976C65.0389 125.776 64.2272 126.667 63.4968 127.468C63.3068 127.676 63.1223 127.879 62.944 128.072C59.8083 131.608 57.2908 135.7 54.8187 139.719C54.6229 140.037 54.4275 140.355 54.232 140.672ZM76.624 125.912C76.696 124.904 76.408 124.04 75.4 123.896C75.04 123.896 74.752 123.896 74.464 123.968C76.264 123.392 76.768 124.472 76.624 125.912ZM76.624 126.128C76.588 126.632 76.48 127.118 76.336 127.577C76.192 128.036 76.012 128.468 75.832 128.864C75.976 128.468 76.138 128.018 76.282 127.55C76.426 127.082 76.552 126.596 76.624 126.128ZM60.5196 140.073C60.5333 140.059 60.5476 140.044 60.562 140.03L60.568 140.024L60.64 139.952L60.352 140.456L58.912 142.832L60.4908 140.105C60.4999 140.094 60.5096 140.084 60.5196 140.073ZM75.616 129.512L75.256 130.232C75.328 130.16 75.472 129.944 75.616 129.512ZM61.072 139.088L60.712 139.808L60.568 139.952L61.072 139.088ZM73.384 124.328L73.096 124.472C73.168 124.472 73.24 124.472 73.384 124.328ZM93.6143 152.769C93.6145 152.769 93.6148 152.768 93.6151 152.768C93.6148 152.769 93.6145 152.769 93.6143 152.769ZM109.399 155.087C109.238 155.097 109.063 155.143 108.88 155.216C108.052 155.608 107.224 156.29 106.412 156.96C105.883 157.396 105.36 157.827 104.848 158.168C101.896 160.04 98.944 161.552 95.776 163.136C95.776 163.092 95.7485 163.02 95.7105 162.92C95.687 162.859 95.6595 162.787 95.632 162.704C95.704 163.064 95.632 163.208 95.56 163.28C94.84 160.184 94.12 157.088 93.544 153.92C93.7447 154.873 94.1203 156.281 94.5001 157.705C94.6653 158.325 94.8312 158.947 94.984 159.536C94.3416 156.538 93.5578 152.833 93.6143 152.769C93.472 152.841 93.472 152.985 93.472 153.128C93.4583 153.046 93.444 152.962 93.4294 152.877C93.2902 152.06 93.1256 151.095 93.256 150.248C93.3061 149.496 93.6005 148.814 93.8962 148.129C94.0253 147.83 94.1546 147.53 94.264 147.224C94.192 147.728 94.048 148.376 94.048 148.376C94.48 148.448 94.768 145.784 94.768 145.496C94.696 145.064 93.76 143.696 93.76 144.056C91.816 142.256 88 146.216 87.424 147.944C86.992 149.096 86.992 150.32 87.064 151.544C87.1314 152.69 87.4514 153.71 87.7875 154.781C87.8103 154.854 87.8331 154.927 87.856 155C87.9798 155.495 87.938 155.896 87.8933 156.324C87.8601 156.643 87.8253 156.977 87.856 157.376C87.949 158.306 88.1924 159.237 88.4306 160.148C88.5611 160.647 88.6901 161.14 88.792 161.624C88.87 161.916 88.9954 162.288 89.1327 162.695C89.5024 163.789 89.9575 165.137 89.8 165.872C89.6889 166.65 88.3783 167.341 87.3552 167.882C87.052 168.042 86.774 168.188 86.56 168.32C85.336 169.112 84.112 170.048 82.888 170.984C80.728 172.64 78.424 174.728 77.56 177.392C77.416 177.752 76.912 179.336 77.416 179.624C77.4591 179.667 77.5538 179.246 77.6383 178.87C77.695 178.618 77.7471 178.386 77.776 178.328C76.84 183.08 81.52 185.384 85.912 185.456C90.88 185.6 94.336 182.72 96.064 178.256C96.784 176.312 97 174.296 96.928 172.28C96.928 170.912 96.784 169.616 96.568 168.32C96.5466 168.149 96.5253 168.005 96.507 167.882C96.4019 167.174 96.3975 167.144 97.072 166.592C97.4656 166.297 97.9937 166.069 98.4724 165.862C98.6943 165.766 98.9056 165.675 99.088 165.584C101.392 164.36 103.48 162.92 105.568 161.408C105.812 161.234 106.11 161.039 106.438 160.825C106.814 160.579 107.229 160.308 107.644 160.014C107.605 160.124 107.584 160.184 107.584 160.184C107.714 160.119 107.785 159.996 107.851 159.866C107.854 159.864 107.857 159.862 107.86 159.859C107.648 160.496 107.435 161.132 107.152 161.768C107.12 161.736 107.16 161.616 107.201 161.494C107.252 161.345 107.303 161.192 107.224 161.192C106.504 161.048 104.704 167.096 104.56 167.672C104.272 169.04 103.912 170.336 103.408 171.704C103.316 172.011 103.21 172.319 103.103 172.632C102.959 173.052 102.812 173.482 102.688 173.936C102.688 173.949 102.676 174.019 102.658 174.121C102.579 174.566 102.395 175.616 102.688 175.088C102.669 175.146 102.649 175.199 102.631 175.248C102.584 175.377 102.546 175.48 102.544 175.582L102.54 175.562C102.534 175.536 102.521 175.51 102.508 175.484C102.49 175.448 102.472 175.412 102.472 175.376C102.256 175.448 102.112 176.96 102.112 177.032C101.908 177.594 101.667 178.047 101.416 178.52C101.313 178.714 101.209 178.911 101.104 179.12C100.168 181.424 99.664 183.944 99.304 186.392C99.1898 187.135 99.0302 187.951 98.8624 188.809C98.1842 192.279 97.3712 196.437 98.872 199.208C99.52 200.432 101.536 202.952 103.12 201.44C103.742 200.818 103.827 199.497 103.885 198.592C103.894 198.45 103.902 198.317 103.912 198.2C104.063 197.368 104.206 196.527 104.349 195.683C104.614 194.118 104.881 192.544 105.208 191L105.856 187.688C105.928 187.544 106.504 184.88 106.288 184.952C106.144 185.096 106 185.312 105.928 185.528C106.134 184.869 106.387 184.234 106.646 183.582C106.841 183.094 107.039 182.596 107.224 182.072C107.345 181.709 107.46 181.349 107.573 180.992C108.001 179.651 108.414 178.355 109.096 177.104C109.697 176.16 110.246 175.165 110.791 174.179C111.159 173.511 111.526 172.848 111.904 172.208C112.169 171.731 112.424 171.205 112.681 170.677C113.121 169.771 113.564 168.858 114.064 168.176C114.192 168.005 114.396 167.885 114.616 167.756C114.767 167.667 114.925 167.573 115.072 167.456C115.547 166.934 115.928 166.286 116.297 165.658C116.488 165.334 116.676 165.014 116.872 164.72C117.221 164.162 117.554 163.604 117.885 163.052C118.579 161.891 119.26 160.753 120.04 159.68C120.544 158.96 126.304 150.896 126.88 150.392C126.736 150.464 126.592 150.536 126.448 150.68C127.024 149.96 127.672 149.312 128.248 148.736C128.284 148.772 128.176 148.898 128.068 149.024C127.96 149.15 127.852 149.276 127.888 149.312C127.948 149.342 128.563 148.906 129.3 148.383C130.324 147.656 131.585 146.762 131.92 146.72C133.504 146.432 132.928 149.456 132.712 150.248C132.386 151.748 131.588 153.188 130.852 154.516C130.775 154.655 130.699 154.792 130.624 154.928C130.51 155.137 130.396 155.341 130.283 155.543C129.969 156.105 129.665 156.649 129.4 157.232C129.328 157.304 128.752 158.672 128.968 158.528L128.536 159.176C128.68 158.96 128.752 158.672 128.752 158.672C128.491 158.672 128.171 159.675 128.06 160.026C128.048 160.062 128.039 160.092 128.032 160.112C127.6 160.832 127.024 161.408 126.448 161.984C125.788 162.738 125.156 163.506 124.527 164.269C123.715 165.256 122.908 166.235 122.056 167.168C121.816 167.423 121.561 167.718 121.291 168.03C120.265 169.216 119.032 170.642 117.664 170.984C117.348 171.058 117.051 171.07 116.796 171.081C116.062 171.11 115.671 171.126 116.152 172.568C116.584 173.936 118.168 177.104 119.896 177.104C121.301 177.104 122.989 175.234 124.006 174.109C124.136 173.965 124.254 173.834 124.36 173.72C124.903 173.105 125.482 172.508 126.07 171.902C126.652 171.302 127.243 170.693 127.816 170.048C128.104 169.616 131.416 165.656 131.92 165.44H131.848C132.137 165.296 132.425 165.256 132.733 165.213C133.192 165.149 133.692 165.079 134.296 164.648C134.552 164.456 134.751 164.264 134.95 164.072C135.199 163.832 135.448 163.592 135.808 163.352C136.181 163.139 136.396 162.886 136.57 162.682C136.632 162.61 136.688 162.544 136.744 162.488C136.744 162.488 136.744 162.56 136.816 162.56C137.2 162.176 137.666 162.058 138.159 161.934C138.591 161.825 139.043 161.71 139.48 161.408C140.232 160.891 141.107 160.281 141.905 159.66C141.878 159.889 141.882 160.029 141.928 160.04C142.04 159.984 142.065 159.928 142.105 159.837C142.116 159.812 142.128 159.784 142.144 159.752L141.928 161.048C141.898 161.048 141.905 160.986 141.914 160.914C141.926 160.812 141.94 160.688 141.856 160.688C141.28 160.688 141.424 163.28 141.496 163.64C141.713 164.615 142.337 165.387 142.971 166.169C143.179 166.426 143.388 166.685 143.584 166.952C144.016 167.6 144.448 168.248 145.096 168.68C145.584 169.046 145.613 168.999 145.649 168.94C145.677 168.895 145.709 168.843 145.96 168.968H145.816C145.744 169.4 148.48 170.12 149.056 170.048C151.19 169.56 152.807 167.266 154.127 165.394C154.366 165.055 154.595 164.73 154.816 164.432C155.194 163.955 155.555 163.477 155.906 162.999C155.849 163.282 155.797 163.568 155.752 163.856C155.453 165.448 155.086 167.006 154.722 168.553C154.558 169.244 154.396 169.934 154.24 170.624C154.211 170.74 154.182 170.855 154.153 170.969C153.896 171.994 153.65 172.972 153.52 174.008C153.376 174.584 153.232 175.232 153.232 175.808C153.232 175.952 153.232 176.888 153.376 176.6L153.232 178.04V176.96C152.827 177.432 153.181 179.482 153.286 180.096C153.293 180.138 153.299 180.173 153.304 180.2C153.592 181.64 154.312 182.936 155.608 183.8C156.76 184.664 158.56 185.456 159.928 184.808C161.593 184.009 163.011 182.225 164.126 180.822C164.217 180.708 164.305 180.596 164.392 180.488C166.912 177.536 169.216 174.44 171.52 171.344C171.925 170.785 172.333 170.229 172.74 169.674C174.415 167.39 176.082 165.117 177.523 162.707C177.489 162.875 177.456 163.042 177.424 163.208C177.064 165.224 176.92 167.456 177.496 169.472C177.856 170.624 179.152 173.216 180.808 173C180.859 173 180.802 172.964 180.688 172.892C180.64 172.862 180.583 172.826 180.52 172.784C181.528 173.072 182.68 172.928 183.544 172.352C183.613 172.49 182.824 172.826 182.757 172.854L182.752 172.857C183.546 174.078 189.448 166.952 189.88 166.304C190.445 165.522 190.905 164.713 191.371 163.894C191.677 163.356 191.986 162.814 192.328 162.272C192.675 161.733 193.125 161.111 193.578 160.484C193.972 159.939 194.369 159.39 194.704 158.888C194.632 159.392 194.632 160.04 194.632 160.04C193.336 164.144 192.112 168.608 193.84 172.856C194.632 175.016 196.576 177.032 199.024 176.6C201.184 176.24 202.984 174.152 204.28 172.496C205.864 170.624 207.232 168.536 208.6 166.376C209.166 165.422 209.714 164.467 210.236 163.487C209.507 166.473 208.821 169.478 208.6 172.568C208.384 176.384 208.384 181.424 211.408 184.232C214.792 187.328 218.68 185.24 221.488 182.576C224.8 179.336 227.608 175.52 230.2 171.776C231.634 169.69 232.885 167.525 234.126 165.376C234.254 165.154 234.382 164.933 234.51 164.712C234.799 165.225 235.179 165.695 235.563 166.169C235.771 166.426 235.98 166.685 236.176 166.952C236.608 167.6 237.04 168.248 237.688 168.68C238.175 169.046 238.205 168.999 238.241 168.94C238.269 168.895 238.301 168.843 238.552 168.968H238.408C238.336 169.4 241.072 170.12 241.648 170.048C243.782 169.56 245.399 167.266 246.719 165.394C246.958 165.055 247.187 164.73 247.408 164.432C247.538 164.267 247.667 164.103 247.793 163.938C247.528 165.754 247.477 167.697 247.984 169.472C248.344 170.624 249.64 173.216 251.296 173C251.347 173 251.29 172.964 251.176 172.892C251.128 172.862 251.071 172.826 251.008 172.784C252.016 173.072 253.168 172.928 254.032 172.352C254.104 172.496 253.24 172.856 253.24 172.856C254.032 174.08 259.936 166.952 260.368 166.304C260.933 165.522 261.393 164.713 261.859 163.894C262.165 163.356 262.474 162.814 262.816 162.272C263.163 161.733 263.613 161.111 264.066 160.484C264.46 159.939 264.857 159.39 265.192 158.888C265.12 159.392 265.12 160.04 265.12 160.04C263.824 164.144 262.6 168.608 264.328 172.856C265.12 175.016 267.064 177.032 269.512 176.6C271.672 176.24 273.472 174.152 274.768 172.496C276.352 170.624 277.72 168.536 279.088 166.376C280.24 164.432 281.32 162.488 282.256 160.328C282.443 159.884 282.736 159.41 283.042 158.915C283.678 157.885 284.369 156.767 284.272 155.648C284.2 154.064 282.904 155.432 282.472 156.008C281.796 156.996 281.157 158.022 280.529 159.032C280.287 159.419 280.048 159.804 279.808 160.184C277.864 163.136 275.92 166.088 273.688 168.896C268.051 175.846 269.694 168.113 270.553 164.066C270.825 162.788 271.018 161.877 270.88 161.912C270.648 161.97 270.463 162.682 270.362 163.069C270.337 163.163 270.318 163.238 270.304 163.28C270.88 160.688 271.96 157.592 273.328 155.072C273.408 154.911 273.49 154.754 273.571 154.598C274.285 153.221 274.91 152.017 273.616 150.464C270.952 147.224 267.856 150.176 266.128 152.408C265.408 149.672 263.968 145.64 260.44 145.64C258.856 145.64 257.92 146.432 256.84 147.368C256.566 147.551 256.318 147.669 256.079 147.783C255.753 147.938 255.444 148.085 255.112 148.376C254.326 148.92 253.743 149.718 253.193 150.472C253.088 150.615 252.984 150.758 252.88 150.896C251.734 152.581 250.746 154.471 249.938 156.432C248.687 158 247.067 160.298 247.264 160.544C247.48 160.544 247.624 160.544 247.768 160.4C246.926 161.423 245.48 162.547 244.229 163.518C243.983 163.71 243.745 163.895 243.52 164.072C243.443 164.135 243.356 164.208 243.259 164.29C242.359 165.047 240.672 166.464 239.632 165.944C237.73 164.993 240.303 159.568 241.446 157.159C241.774 156.467 241.984 156.024 241.936 156.008C241.72 155.936 239.92 159.968 239.56 160.904C240.424 158.384 241.576 155.864 242.944 153.632C242.923 153.694 242.891 153.767 242.859 153.841C242.778 154.024 242.697 154.208 242.8 154.208C242.944 154.28 244.024 152.768 243.808 152.624C243.736 152.624 243.592 152.624 243.52 152.696C243.582 152.634 243.655 152.584 243.729 152.534C243.912 152.41 244.096 152.285 244.096 151.976C244.096 151.256 242.44 150.536 241.864 150.32C240.496 149.744 239.128 149.6 238.048 150.32C236.896 151.011 236.481 152.255 236.067 153.5C235.963 153.811 235.859 154.122 235.744 154.424C235.631 154.764 234.757 158.009 234.533 159.406C233.424 161.285 232.309 163.111 231.136 164.936C231.001 165.15 230.866 165.365 230.731 165.58C228.416 169.26 226.077 172.979 223.288 176.312C223.165 176.464 223.028 176.638 222.878 176.828C221.544 178.523 219.226 181.467 217.024 181.208C215.224 180.92 215.224 177.824 215.224 176.456C215.224 175.304 215.296 174.152 215.44 173.072C215.458 172.909 215.508 172.65 215.567 172.345C215.743 171.437 215.997 170.119 215.728 169.688L215.152 171.848C215.224 170.984 215.368 170.048 215.584 169.184C215.539 169.095 215.772 168.282 215.99 167.525C216.123 167.063 216.249 166.621 216.304 166.376V166.375C216.664 164.935 217.024 163.496 217.456 162.056C217.816 160.616 218.176 159.248 218.608 157.88C218.968 156.584 219.472 155.936 220.264 154.928C223.504 150.896 226.456 146.504 229.192 142.112C229.472 141.652 229.724 141.209 229.968 140.78C230.604 139.662 231.188 138.636 232.072 137.648C233.612 136.046 234.73 133.76 235.743 131.689C235.914 131.34 236.082 130.997 236.248 130.664C238.192 126.92 240.784 121.736 240.352 117.344V116.984L240.28 116.912C239.848 114.104 237.256 110.792 234.088 111.8C232.628 112.245 231.503 113.641 230.566 114.804C230.441 114.96 230.319 115.111 230.2 115.256L228.544 117.488C228.322 117.754 228.045 118.267 227.782 118.756C227.617 119.06 227.458 119.355 227.32 119.576L227.392 119.504L225.088 123.464L225.664 122.24C225.371 122.182 224.27 124.216 223.752 125.173C223.633 125.394 223.544 125.557 223.504 125.624C222.712 126.992 221.992 128.36 221.344 129.728C219.904 132.608 218.464 135.56 217.528 138.656C216.889 140.62 216.191 142.555 215.491 144.498C215.087 145.618 214.683 146.74 214.288 147.872C213.712 149.528 213.136 151.256 212.632 152.912C212.537 153.214 212.413 153.558 212.281 153.926C211.955 154.835 211.576 155.892 211.435 156.83C210.958 157.559 210.496 158.3 210.04 159.032C209.799 159.42 209.56 159.805 209.32 160.184C207.376 163.136 205.432 166.088 203.2 168.896C197.563 175.846 199.206 168.113 200.065 164.066C200.337 162.788 200.53 161.877 200.392 161.912C200.16 161.97 199.975 162.681 199.874 163.069C199.85 163.163 199.83 163.238 199.816 163.28C200.392 160.688 201.472 157.592 202.84 155.072C202.92 154.911 203.002 154.754 203.083 154.598C203.797 153.221 204.422 152.017 203.128 150.464C200.464 147.224 197.368 150.176 195.64 152.408C194.92 149.672 193.48 145.64 189.952 145.64C188.368 145.64 187.432 146.432 186.352 147.368C186.078 147.551 185.83 147.669 185.591 147.783C185.265 147.938 184.956 148.085 184.624 148.376C183.838 148.92 183.255 149.718 182.705 150.472C182.6 150.615 182.496 150.758 182.392 150.896C181.387 152.374 180.503 154.01 179.756 155.713C179.163 156.165 178.497 157.211 177.975 158.032C177.727 158.421 177.512 158.76 177.352 158.96C176.056 160.58 174.796 162.218 173.536 163.856C172.276 165.494 171.016 167.132 169.72 168.752L165.544 173.864C165.338 174.093 165.132 174.329 164.924 174.568C164.477 175.08 164.019 175.605 163.528 176.096C163.441 176.205 163.214 176.414 162.942 176.664C162.319 177.238 161.462 178.027 161.512 178.328C161.512 178.445 162.036 178.039 162.386 177.766C162.467 177.704 162.538 177.648 162.592 177.608C162.349 177.899 162.074 178.157 161.81 178.405C161.683 178.525 161.557 178.643 161.44 178.76C161.46 178.74 161.362 178.79 161.205 178.87C160.786 179.083 159.941 179.513 159.784 179.408C158.583 178.902 159.38 175.62 159.739 174.145C159.788 173.94 159.83 173.771 159.856 173.648C161.152 167.816 163.096 161.912 165.04 156.296C166.192 153.2 167.344 150.248 168.64 147.224C168.789 146.877 168.937 146.527 169.087 146.174C169.589 144.989 170.101 143.781 170.656 142.616L171.664 139.88L170.872 141.464C170.909 141.368 170.947 141.269 170.987 141.168C171.481 139.891 172.128 138.219 172.528 138.152L172.312 138.584C172.456 138.368 172.6 138.224 172.744 138.152C173.296 137.801 174.443 137.939 175.405 138.055C175.822 138.106 176.205 138.152 176.488 138.152C176.614 138.152 176.746 138.155 176.881 138.158C177.439 138.169 178.054 138.182 178.576 138.008C178.78 137.94 178.856 137.856 178.932 137.77C179.017 137.676 179.103 137.58 179.368 137.504C179.755 137.44 180.186 137.52 180.627 137.602C181.171 137.703 181.731 137.807 182.248 137.648C183.112 137.432 184.336 136.64 184.264 135.632V135.56C184.214 134.853 183.668 135.031 183.147 135.201C182.926 135.273 182.708 135.344 182.536 135.344C181.105 135.416 179.674 135.452 178.252 135.487C176.812 135.524 175.381 135.56 173.968 135.632C173.968 135.56 174.112 135.272 174.328 134.84C174.04 135.344 173.824 135.632 173.608 135.632C175.768 131.24 178.072 126.848 180.808 122.816C180.787 122.858 180.681 123.039 180.543 123.275C180.206 123.853 179.677 124.76 179.728 124.76C179.944 124.832 182.608 121.16 182.68 120.656C182.68 120.464 182.392 120.72 182.2 120.891C182.104 120.976 182.032 121.04 182.032 121.016C182.173 120.875 182.346 120.741 182.521 120.605C182.881 120.325 183.255 120.035 183.4 119.648C183.904 118.208 182.392 117.56 181.312 117.344C179.08 116.912 176.56 117.2 175.12 119.072C173.752 120.728 172.744 122.672 171.88 124.616C171.631 125.114 171.334 125.397 171.016 125.699C170.784 125.921 170.54 126.153 170.296 126.488C169.616 127.451 169.115 128.547 168.616 129.637C168.481 129.933 168.346 130.228 168.208 130.52C167.632 131.744 167.056 133.04 166.552 134.336C166.483 134.491 166.43 134.638 166.382 134.775C166.227 135.209 166.109 135.54 165.616 135.704C165.2 135.889 164.548 135.866 163.943 135.845C163.605 135.833 163.282 135.822 163.024 135.848C161.511 136.042 160.02 136.09 158.527 136.137C157.874 136.158 157.22 136.179 156.565 136.212C156.559 136.187 156.552 136.161 156.544 136.136C156.256 135.272 155.536 134.192 154.744 133.688C153.808 133.184 152.512 132.968 151.504 133.4C151.48 133.408 151.447 133.418 151.409 133.43C151.108 133.522 150.456 133.721 150.712 133.976C150.784 134.12 150.856 134.12 151 134.12C150.352 134.624 149.272 135.488 150.784 136.064C150.671 136.177 150.735 136.6 150.768 136.812C150.653 136.847 150.538 136.886 150.424 136.928C150.393 136.936 150.348 136.947 150.29 136.96C149.814 137.075 148.537 137.383 148.408 137.576C148.04 138.25 149.236 138.403 149.823 138.477C149.926 138.491 150.01 138.501 150.064 138.512C150.129 138.521 150.194 138.529 150.259 138.537C149.898 139.504 149.42 140.664 149.056 141.392L149.92 140.096C149.416 141.176 148.84 142.184 148.192 143.048C148.624 142.112 147.76 143.192 147.76 143.408C146.968 143.048 147.184 145.28 147.256 145.496C147.256 145.568 147.688 146.216 147.688 146.216C147.737 146.289 147.744 146.37 147.752 146.457C147.768 146.626 147.786 146.817 148.12 147.008C148.494 147.168 148.749 147.051 149.032 146.921C149.13 146.876 149.232 146.829 149.344 146.792C149.941 146.543 150.435 146.019 150.897 145.529C151.104 145.31 151.304 145.098 151.504 144.92C151.72 144.776 151.288 144.848 151.288 144.848C151.776 144.398 151.794 144.456 151.822 144.543C151.848 144.624 151.882 144.729 152.296 144.488C152.801 144.152 153.06 143.692 153.331 143.211C153.525 142.868 153.725 142.513 154.024 142.184C153.16 142.544 152.512 143.048 151.936 143.768C151.216 144.704 150.712 145.136 149.92 145.64C150.784 144.992 151.216 144.344 151.936 143.192C152.152 142.976 152.368 142.832 152.656 142.688C152.44 142.472 152.44 142.256 152.728 142.04C152.836 141.86 152.998 141.734 153.16 141.608C153.322 141.482 153.484 141.356 153.592 141.176C153.759 140.942 153.833 140.677 153.908 140.409C153.994 140.101 154.081 139.79 154.312 139.52C154.47 139.393 154.656 139.281 154.84 139.17C154.974 139.089 155.106 139.009 155.225 138.925C156.537 138.941 157.829 138.87 158.992 138.656C160.187 138.426 161.411 138.402 162.664 138.377C163.375 138.363 164.095 138.348 164.824 138.296C163.816 140.456 163.024 142.76 162.232 145.064L161.368 147.584C161.275 147.841 161.113 148.174 160.937 148.535C160.571 149.289 160.144 150.168 160.144 150.752C160.144 150.896 160.36 150.536 160.504 150.176C160.384 150.536 160.256 150.896 160.128 151.256C159.872 151.976 159.616 152.696 159.424 153.416C159.424 153.393 159.445 153.292 159.473 153.164C159.531 152.885 159.617 152.48 159.568 152.48C159.357 152.48 158.776 153.987 158.301 155.308C157.207 156.468 154.417 160.225 154.672 160.544C154.888 160.544 155.032 160.544 155.176 160.4C154.333 161.423 152.888 162.547 151.637 163.519C151.391 163.71 151.153 163.895 150.928 164.072C150.851 164.135 150.764 164.208 150.667 164.29C149.767 165.047 148.08 166.464 147.04 165.944C145.138 164.993 147.711 159.568 148.854 157.159C149.182 156.467 149.392 156.024 149.344 156.008C149.128 155.936 147.328 159.968 146.968 160.904C147.832 158.384 148.984 155.864 150.352 153.632C150.331 153.694 150.299 153.767 150.267 153.841C150.186 154.024 150.105 154.208 150.208 154.208C150.352 154.28 151.432 152.768 151.216 152.624C151.144 152.624 151 152.624 150.928 152.696C150.99 152.634 151.063 152.584 151.137 152.534C151.32 152.41 151.504 152.285 151.504 151.976C151.504 151.256 149.848 150.536 149.272 150.32C147.904 149.744 146.536 149.6 145.456 150.32C144.304 151.011 143.889 152.255 143.475 153.5C143.371 153.811 143.267 154.122 143.152 154.424C143.099 154.582 142.884 155.363 142.645 156.295C142.172 156.534 141.861 156.766 141.928 156.944C141.928 157.016 142.072 157.088 142.144 157.088C141.665 157.285 141.13 157.417 140.584 157.551C139.735 157.759 138.857 157.974 138.112 158.456C137.88 158.615 137.65 158.773 137.421 158.931C136.3 159.705 135.204 160.462 134.008 161.12C135.304 158.888 136.528 156.512 137.32 154.136C137.608 153.272 139.264 147.944 138.184 147.368C138.069 147.311 138 147.712 137.94 148.059C137.925 148.147 137.911 148.231 137.896 148.304C137.968 145.424 137.032 141.032 133.144 140.744C130.914 140.609 128.811 143.201 127.489 144.829C127.403 144.936 127.32 145.039 127.24 145.136C124.724 148.327 122.47 151.727 120.254 155.069C119.87 155.648 119.487 156.226 119.104 156.8C118.384 157.88 111.184 169.544 111.184 169.544C111.184 169.544 111.688 168.824 112.336 167.888C111.688 168.968 111.04 170.12 110.464 171.272C110.752 170.192 113.488 161.624 115.216 156.584C115.332 156.41 115.402 156.188 115.462 155.996C115.476 155.95 115.49 155.906 115.504 155.864L115.936 154.64V154.712C115.948 154.676 115.96 154.639 115.972 154.603C116.03 154.541 116.08 154.472 116.08 154.352L116.008 154.496C116.632 152.624 117.253 150.749 117.808 148.808C117.808 148.904 117.751 149.171 117.694 149.437C117.623 149.771 117.552 150.104 117.592 150.104C118.024 150.176 118.6 147.152 118.312 147.152L118.096 147.512C118.138 147.301 118.186 147.111 118.231 146.935C118.414 146.207 118.545 145.689 118.024 144.704C117.52 143.624 116.656 142.616 115.432 142.328C113.056 141.68 111.904 143.624 112.048 145.496C112.048 145.64 112.138 145.748 112.228 145.856C112.318 145.964 112.408 146.072 112.408 146.216C112.408 146.445 112.262 146.791 112.137 147.087C112.066 147.255 112.002 147.407 111.976 147.512C111.794 148.058 111.631 148.595 111.469 149.125C111.184 150.064 110.904 150.984 110.536 151.904C110.423 152.216 109.941 153.565 109.399 155.087ZM116.008 154.496L115.936 154.64C115.948 154.628 115.96 154.616 115.972 154.603C115.984 154.567 115.996 154.532 116.008 154.496ZM86.488 179.984L84.472 180.776C83.464 180.992 82.312 181.208 81.304 180.848C79.432 180.272 81.304 177.32 81.952 176.384C82.9902 175 84.494 173.948 85.888 172.974C85.9442 172.934 86.0002 172.895 86.056 172.856L88.216 171.416C88.432 171.272 89.8 170.192 89.368 170.336L90.232 169.832L89.728 170.264C89.762 170.247 89.7999 170.23 89.84 170.212C89.9699 170.154 90.122 170.086 90.232 169.976C90.304 171.704 90.304 173.432 89.8 175.16C89.728 175.448 88.36 178.328 87.784 178.904L88.144 178.616C87.496 179.408 86.776 180.056 85.912 180.56C85.912 180.529 86.0295 180.433 86.159 180.328C86.3334 180.185 86.5293 180.025 86.488 179.984ZM94.048 179.264C93.256 180.848 92.248 182.072 90.376 182.936C88.504 183.728 86.704 184.088 84.76 184.16C88.288 183.944 91.96 182.216 94.048 179.264ZM95.2 160.472C95.308 160.868 95.398 161.246 95.47 161.588C95.542 161.93 95.596 162.236 95.632 162.488C95.56 162.272 95.488 161.966 95.416 161.615C95.344 161.264 95.272 160.868 95.2 160.472ZM96.568 169.976C96.532 169.94 96.514 169.886 96.505 169.823H96.532C96.5351 169.834 96.5382 169.844 96.5412 169.855C96.5556 169.904 96.568 169.946 96.568 169.976ZM108.952 162.344C109.024 162.416 109.024 162.488 109.024 162.488V162.56C108.971 163.245 108.61 164.008 108.278 164.707C108.157 164.962 108.04 165.209 107.944 165.44C107.44 166.808 107.008 168.176 106.576 169.544C105.64 172.424 104.56 175.304 103.408 178.04C102.472 180.344 101.608 182.864 100.96 185.384C101.504 182.962 102.285 180.574 103.048 178.243C103.396 177.179 103.74 176.126 104.056 175.088C104.664 173.123 105.485 171.188 106.302 169.264C106.742 168.227 107.181 167.194 107.584 166.16C107.608 166.099 107.668 165.965 107.75 165.783C108.149 164.889 109.072 162.822 108.952 162.344ZM111.672 166.329C111.716 166.176 111.76 166.02 111.805 165.863L111.859 165.89C111.742 166.286 111.616 166.664 111.472 167.024C111.538 166.804 111.604 166.57 111.672 166.329ZM121.055 154.294C121.369 153.808 121.694 153.305 122.056 152.84L120.688 154.856C120.81 154.673 120.932 154.485 121.055 154.294ZM134.44 161.12L133.792 161.552C133.84 161.408 134.016 161.328 134.192 161.248C134.28 161.208 134.368 161.168 134.44 161.12ZM116.584 153.128C116.512 153.2 116.44 153.416 116.368 153.704L116.584 153.128ZM119.824 156.08C119.875 156.029 119.89 156.014 119.894 155.984L119.925 155.931C119.918 155.965 119.871 156.058 119.824 156.152V156.08ZM146.373 163.233C146.378 163.236 146.36 163.272 146.32 163.352V163.424L146.176 163.856L146.32 163.28C146.352 163.248 146.37 163.23 146.373 163.233ZM148.696 141.968C148.696 141.968 148.84 141.824 148.984 141.536L148.696 141.968ZM147.904 143.48C147.904 143.48 147.904 143.414 147.841 143.408H147.846C147.904 143.408 147.909 143.403 147.976 143.336C147.976 143.367 147.976 143.384 147.97 143.4C147.963 143.421 147.945 143.439 147.904 143.48ZM172.198 136.247C171.663 137.413 171.129 138.578 170.584 139.736C167.945 145.308 165.831 151.214 163.737 157.066C163.26 158.398 162.785 159.727 162.304 161.048C161.08 164.288 159.928 167.672 159.136 171.056L158.776 172.424C159.28 169.832 159.856 167.312 160.576 164.792C162.16 159.248 164.176 153.776 166.552 148.52C167.366 146.702 168.163 144.858 168.963 143.005C172.126 135.685 175.347 128.229 179.944 121.736C176.791 126.231 174.491 131.247 172.198 136.247ZM177.064 129.296L175.336 132.608C175.408 132.441 175.48 132.276 175.551 132.112C176.183 130.649 176.74 129.361 177.064 129.296ZM174.4 134.696C174.616 134.264 174.904 133.688 175.12 133.112L174.4 134.696ZM158.704 180.056L158.488 179.912C158.56 179.984 158.632 180.056 158.704 180.056ZM193.445 155.543C193.403 155.699 193.314 155.842 193.12 156.152C192.76 156.656 192.4 157.16 192.112 157.664L190.24 160.328C189.016 162.128 187.72 163.856 186.352 165.512C185.992 166.016 184.264 168.248 183.544 168.032C182.569 167.707 183.413 164.625 183.692 163.604C183.722 163.494 183.746 163.408 183.76 163.352C183.976 162.344 187.792 151.256 188.8 151.04C187.504 150.968 183.328 164 183.112 165.08C183.688 161.552 184.984 158.096 186.424 154.856C186.496 154.706 186.576 154.532 186.665 154.342C187.548 152.438 189.232 148.808 191.392 148.808C192.485 148.808 192.861 150.703 193.082 151.815C193.123 152.022 193.158 152.201 193.192 152.336C193.168 152.288 193.08 152.024 192.971 151.696C192.752 151.04 192.448 150.128 192.4 150.176C192.177 150.354 192.643 151.936 193.031 153.254C193.27 154.067 193.48 154.78 193.48 155C193.48 155.266 193.48 155.409 193.445 155.543ZM195.424 157.952L194.776 159.68C194.776 159.68 194.992 158.672 195.064 158.456L195.424 157.952ZM193.696 155.216C193.912 155 193.912 154.784 193.696 154.496V155.216ZM222.754 144.63C224.44 139.42 226.201 133.981 228.328 128.864C228.387 128.721 228.447 128.578 228.507 128.435C229.888 125.117 231.291 121.746 233.224 118.64C233.728 117.848 236.968 113.528 236.824 117.344V117.416C236.703 120.795 234.863 124.326 233.253 127.415C232.942 128.012 232.64 128.592 232.36 129.152L229.336 134.768C229.022 135.306 228.639 135.885 228.242 136.485C227.364 137.812 226.421 139.238 226.024 140.528C226.313 139.756 226.991 138.758 227.601 137.859C227.902 137.416 228.186 136.996 228.4 136.64C229.12 135.44 229.776 134.24 230.432 133.04C230.76 132.44 231.088 131.84 231.424 131.24C231.581 130.939 231.74 130.637 231.899 130.333C233.417 127.441 234.996 124.432 236.104 121.304C233.261 129.771 228.255 137.738 223.471 145.353C222.803 146.415 222.14 147.471 221.488 148.52C221.909 147.244 222.329 145.944 222.754 144.63ZM223.864 128.36C224.512 126.776 225.232 125.336 226.024 123.824C226.399 123.112 226.929 122.459 227.453 121.814C227.937 121.218 228.415 120.63 228.76 120.008C227.872 121.784 226.859 123.462 225.854 125.127C225.148 126.296 224.445 127.46 223.792 128.648C223.792 128.576 223.792 128.432 223.864 128.36ZM212.344 160.832C212.488 160.76 212.488 160.976 212.416 161.048C212.344 161.192 212.344 161.264 212.344 161.264C211.765 162.615 211.542 164.29 211.327 165.898C211.222 166.689 211.118 167.464 210.976 168.176C210.951 168.354 210.916 168.523 210.882 168.69C210.82 168.994 210.76 169.29 210.76 169.616V169.4L210.544 171.704C210.688 169.112 210.976 166.448 211.48 163.928V164C211.696 162.344 212.056 160.832 212.344 160.832ZM239.848 145.496C239.848 145.568 240.28 146.216 240.28 146.216C240.329 146.289 240.336 146.37 240.344 146.457C240.36 146.626 240.378 146.817 240.712 147.008C241.086 147.168 241.341 147.051 241.624 146.921C241.722 146.876 241.824 146.829 241.936 146.792C242.533 146.543 243.027 146.019 243.489 145.529C243.696 145.31 243.896 145.098 244.096 144.92C244.312 144.776 243.88 144.848 243.88 144.848C244.368 144.398 244.386 144.456 244.414 144.543C244.44 144.624 244.474 144.729 244.888 144.488C245.393 144.152 245.652 143.692 245.923 143.211C246.117 142.868 246.317 142.513 246.616 142.184C245.752 142.544 245.104 143.048 244.528 143.768C243.808 144.704 243.304 145.136 242.512 145.64C243.376 144.992 243.808 144.344 244.528 143.192C244.744 142.976 244.96 142.832 245.248 142.688C245.032 142.472 245.032 142.256 245.32 142.04C245.428 141.86 245.59 141.734 245.752 141.608C245.914 141.482 246.076 141.356 246.184 141.176C246.351 140.942 246.425 140.677 246.5 140.409C246.586 140.101 246.673 139.79 246.904 139.52C247.062 139.393 247.248 139.281 247.432 139.17C247.665 139.028 247.895 138.889 248.056 138.728C248.704 138.152 249.424 137.072 249.136 136.136C248.848 135.272 248.128 134.192 247.336 133.688C246.4 133.184 245.104 132.968 244.096 133.4C244.072 133.408 244.039 133.418 244.001 133.43C243.7 133.522 243.048 133.72 243.304 133.976C243.376 134.12 243.448 134.12 243.592 134.12C242.944 134.624 241.864 135.488 243.376 136.064C243.262 136.178 243.329 136.61 243.361 136.82C243.37 136.874 243.376 136.913 243.376 136.928C243.304 137.432 242.296 140.096 241.648 141.392L242.512 140.096C242.008 141.176 241.432 142.184 240.784 143.048C241.216 142.112 240.352 143.192 240.352 143.408C239.56 143.048 239.776 145.28 239.848 145.496ZM238.965 163.233C238.97 163.236 238.952 163.272 238.912 163.352V163.424L238.768 163.856L238.912 163.28C238.944 163.248 238.962 163.23 238.965 163.233ZM241.288 141.968C241.288 141.968 241.432 141.824 241.576 141.536L241.288 141.968ZM240.496 143.48C240.496 143.48 240.496 143.414 240.433 143.408H240.438C240.496 143.408 240.501 143.403 240.568 143.336C240.568 143.408 240.568 143.408 240.496 143.48ZM263.933 155.543C263.891 155.699 263.802 155.842 263.608 156.152C263.248 156.656 262.888 157.16 262.6 157.664L260.728 160.328C259.504 162.128 258.208 163.856 256.84 165.512C256.48 166.016 254.752 168.248 254.032 168.032C253.057 167.707 253.901 164.625 254.18 163.604C254.21 163.494 254.234 163.408 254.248 163.352C254.464 162.344 258.28 151.256 259.288 151.04C257.992 150.968 253.816 164 253.6 165.08C254.176 161.552 255.472 158.096 256.912 154.856C256.984 154.706 257.064 154.532 257.153 154.342C258.036 152.438 259.72 148.808 261.88 148.808C262.973 148.808 263.349 150.703 263.57 151.815C263.611 152.022 263.646 152.201 263.68 152.336C263.656 152.288 263.568 152.024 263.459 151.696C263.24 151.04 262.936 150.128 262.888 150.176C262.665 150.354 263.131 151.936 263.519 153.254C263.758 154.067 263.968 154.78 263.968 155C263.968 155.266 263.968 155.409 263.933 155.543ZM265.552 158.456L265.912 157.952L265.264 159.68C265.264 159.68 265.48 158.672 265.552 158.456ZM264.184 155.216C264.4 155 264.4 154.784 264.184 154.496V155.216ZM46.548 208.3C46.188 209.316 46.008 210.336 46.008 211.36C46.008 212.448 46.204 213.516 46.596 214.564C46.988 215.612 47.536 216.548 48.24 217.372C48.944 218.196 49.784 218.864 50.76 219.376C51.736 219.888 52.808 220.144 53.976 220.144C54.632 220.144 55.3 220.056 55.98 219.88C56.66 219.704 57.304 219.448 57.912 219.112C58.52 218.776 59.072 218.364 59.568 217.876C60.064 217.388 60.448 216.824 60.72 216.184L59.328 215.464C59.056 216.024 58.72 216.5 58.32 216.892C57.92 217.284 57.484 217.612 57.012 217.876C56.54 218.14 56.052 218.332 55.548 218.452C55.044 218.572 54.552 218.632 54.072 218.632C53.16 218.632 52.316 218.436 51.54 218.044C50.764 217.652 50.092 217.124 49.524 216.46C48.956 215.796 48.508 215.032 48.18 214.168C47.852 213.304 47.688 212.4 47.688 211.456C47.688 210.592 47.824 209.74 48.096 208.9C48.368 208.06 48.772 207.304 49.308 206.632C49.844 205.96 50.504 205.416 51.288 205C52.072 204.584 52.976 204.376 54 204.376C54.464 204.376 54.936 204.428 55.416 204.532C55.896 204.636 56.36 204.808 56.808 205.048C57.256 205.288 57.676 205.6 58.068 205.984C58.46 206.368 58.792 206.84 59.064 207.4L60.384 206.584C59.872 205.48 59.076 204.584 57.996 203.896C56.916 203.208 55.616 202.864 54.096 202.864C52.816 202.864 51.672 203.116 50.664 203.62C49.656 204.124 48.808 204.776 48.12 205.576C47.432 206.376 46.908 207.284 46.548 208.3ZM75.844 219.388C76.828 219.876 77.912 220.12 79.096 220.12C80.232 220.12 81.288 219.884 82.264 219.412C83.24 218.94 84.084 218.308 84.796 217.516C85.508 216.724 86.068 215.808 86.476 214.768C86.884 213.728 87.088 212.64 87.088 211.504C87.088 210.432 86.896 209.38 86.512 208.348C86.128 207.316 85.588 206.392 84.892 205.576C84.196 204.76 83.356 204.1 82.372 203.596C81.388 203.092 80.304 202.84 79.12 202.84C77.984 202.84 76.928 203.076 75.952 203.548C74.976 204.02 74.128 204.656 73.408 205.456C72.688 206.256 72.124 207.176 71.716 208.216C71.308 209.256 71.104 210.344 71.104 211.48C71.104 212.568 71.296 213.632 71.68 214.672C72.064 215.712 72.608 216.636 73.312 217.444C74.016 218.252 74.86 218.9 75.844 219.388ZM73.24 214.156C72.936 213.3 72.784 212.408 72.784 211.48C72.784 210.6 72.932 209.736 73.228 208.888C73.524 208.04 73.944 207.28 74.488 206.608C75.032 205.936 75.696 205.396 76.48 204.988C77.264 204.58 78.136 204.376 79.096 204.376C80.024 204.376 80.872 204.572 81.64 204.964C82.408 205.356 83.072 205.88 83.632 206.536C84.192 207.192 84.628 207.948 84.94 208.804C85.252 209.66 85.408 210.552 85.408 211.48C85.408 212.36 85.26 213.224 84.964 214.072C84.668 214.92 84.248 215.68 83.704 216.352C83.16 217.024 82.496 217.568 81.712 217.984C80.928 218.4 80.056 218.608 79.096 218.608C78.152 218.608 77.296 218.412 76.528 218.02C75.76 217.628 75.096 217.1 74.536 216.436C73.976 215.772 73.544 215.012 73.24 214.156ZM100.736 220V206.08L111.848 220H113.312V202.984H111.632V217.144L100.352 202.96H99.056V220H100.736ZM134.424 204.832C135.224 205.168 135.864 205.608 136.344 206.152L137.16 204.808C136.44 204.184 135.636 203.7 134.748 203.356C133.86 203.012 132.848 202.84 131.712 202.84C130.816 202.84 130 202.948 129.264 203.164C128.528 203.38 127.888 203.692 127.344 204.1C126.8 204.508 126.38 205.02 126.084 205.636C125.788 206.252 125.64 206.952 125.64 207.736C125.64 208.424 125.756 209.004 125.988 209.476C126.22 209.948 126.568 210.352 127.032 210.688C127.496 211.024 128.064 211.304 128.736 211.528C129.408 211.752 130.192 211.968 131.088 212.176C131.936 212.368 132.68 212.56 133.32 212.752C133.96 212.944 134.496 213.172 134.928 213.436C135.36 213.7 135.684 214.012 135.9 214.372C136.116 214.732 136.224 215.176 136.224 215.704C136.224 216.696 135.844 217.436 135.084 217.924C134.324 218.412 133.264 218.656 131.904 218.656C131.248 218.656 130.624 218.596 130.032 218.476C129.44 218.356 128.884 218.188 128.364 217.972C127.844 217.756 127.372 217.504 126.948 217.216C126.524 216.928 126.16 216.624 125.856 216.304L125.016 217.672C126.936 219.32 129.216 220.144 131.856 220.144C132.752 220.144 133.576 220.052 134.328 219.868C135.08 219.684 135.728 219.4 136.272 219.016C136.816 218.632 137.24 218.152 137.544 217.576C137.848 217 138 216.32 138 215.536C138 214.768 137.864 214.128 137.592 213.616C137.32 213.104 136.928 212.668 136.416 212.308C135.904 211.948 135.284 211.648 134.556 211.408C133.828 211.168 133.008 210.952 132.096 210.76C131.28 210.584 130.572 210.408 129.972 210.232C129.372 210.056 128.88 209.848 128.496 209.608C128.112 209.368 127.828 209.084 127.644 208.756C127.46 208.428 127.368 208.008 127.368 207.496C127.368 206.52 127.712 205.748 128.4 205.18C129.088 204.612 130.184 204.328 131.688 204.328C132.712 204.328 133.624 204.496 134.424 204.832ZM159.34 217.996C158.628 218.404 157.736 218.608 156.664 218.608C155.608 218.608 154.728 218.408 154.024 218.008C153.32 217.608 152.756 217.08 152.332 216.424C151.908 215.768 151.608 215.016 151.432 214.168C151.256 213.32 151.168 212.448 151.168 211.552V202.96H149.512V211.552C149.512 212.64 149.632 213.696 149.872 214.72C150.112 215.744 150.512 216.656 151.072 217.456C151.632 218.256 152.372 218.9 153.292 219.388C154.212 219.876 155.344 220.12 156.688 220.12C158 220.12 159.112 219.888 160.024 219.424C160.936 218.96 161.676 218.336 162.244 217.552C162.812 216.768 163.224 215.86 163.48 214.828C163.736 213.796 163.864 212.704 163.864 211.552V202.96H162.184V211.552C162.184 212.416 162.1 213.272 161.932 214.12C161.764 214.968 161.468 215.724 161.044 216.388C160.62 217.052 160.052 217.588 159.34 217.996ZM176.672 202.96V220H188.192V218.512H178.352V202.96H176.672ZM202.656 204.448H208.728V202.96H194.904V204.448H200.976V220H202.656V204.448ZM220.072 202.96V220H221.752V202.96H220.072ZM236.504 220V206.08L247.616 220H249.08V202.984H247.4V217.144L236.12 202.96H234.824V220H236.504ZM265.812 219.376C266.78 219.872 267.84 220.12 268.992 220.12C271.056 220.12 272.88 219.248 274.464 217.504V220H275.88V211.624H270.672V212.92H274.464V215.752C273.648 216.744 272.796 217.468 271.908 217.924C271.02 218.38 270.088 218.608 269.112 218.608C268.2 218.608 267.356 218.416 266.58 218.032C265.804 217.648 265.128 217.132 264.552 216.484C263.976 215.836 263.524 215.08 263.196 214.216C262.868 213.352 262.704 212.44 262.704 211.48C262.704 210.568 262.848 209.684 263.136 208.828C263.424 207.972 263.836 207.212 264.372 206.548C264.908 205.884 265.556 205.352 266.316 204.952C267.076 204.552 267.928 204.352 268.872 204.352C270.008 204.352 271.024 204.6 271.92 205.096C272.816 205.592 273.544 206.368 274.104 207.424L275.4 206.56C275.128 206.016 274.796 205.516 274.404 205.06C274.012 204.604 273.548 204.212 273.012 203.884C272.476 203.556 271.864 203.3 271.176 203.116C270.488 202.932 269.728 202.84 268.896 202.84C267.76 202.84 266.712 203.076 265.752 203.548C264.792 204.02 263.96 204.652 263.256 205.444C262.552 206.236 262.004 207.152 261.612 208.192C261.22 209.232 261.024 210.32 261.024 211.456C261.024 212.544 261.224 213.604 261.624 214.636C262.024 215.668 262.58 216.592 263.292 217.408C264.004 218.224 264.844 218.88 265.812 219.376Z" fill="black"/>
</svg>
